<svg width="174" height="238" viewBox="0 0 174 238" fill="none" xmlns="http://www.w3.org/2000/svg">
<g clip-path="url(#clip0_1_256)">
<g filter="url(#filter0_dddddd_1_256)">
<rect x="0.385071" y="0.666321" width="173.33" height="236.743" rx="15" fill="url(#paint0_linear_1_256)"/>
</g>
<g clip-path="url(#clip1_1_256)">
<path d="M96.0604 146.561C97.5257 154.528 98.8061 162.523 100.271 170.49C104.867 177.162 109.618 183.721 114.214 190.393C120.886 194.989 127.444 199.74 134.117 204.336C142.084 205.801 150.079 207.081 158.046 208.547C166.013 207.081 174.008 205.801 181.975 204.336C188.648 199.74 195.206 194.989 201.879 190.393C206.474 183.721 211.226 177.162 215.821 170.49C217.286 162.523 218.567 154.528 220.032 146.561C218.567 138.594 217.286 130.598 215.821 122.632C211.226 115.959 206.474 109.401 201.879 102.728C195.206 98.1331 188.648 93.3814 181.975 88.7862C174.023 87.3066 166.027 86.0262 158.06 84.5609C150.093 86.0262 142.098 87.3066 134.131 88.772C127.459 93.3672 120.9 98.1189 114.228 102.714C109.633 109.386 104.881 115.945 100.286 122.617C98.8061 130.584 97.5257 138.594 96.0604 146.561ZM106.119 168.072C104.81 160.916 103.643 153.717 102.349 146.561C103.643 139.391 104.81 132.206 106.119 125.05C110.259 119.061 114.512 113.157 118.667 107.167C124.656 103.027 130.56 98.7591 136.55 94.6191C143.706 93.3103 150.904 92.1437 158.06 90.8491C165.231 92.1437 172.415 93.3103 179.571 94.6191C185.561 98.7591 191.465 103.013 197.454 107.167C201.594 113.157 205.862 119.061 210.002 125.05C211.311 132.206 212.478 139.405 213.772 146.561C212.463 153.717 211.297 160.916 209.988 168.072C205.848 174.061 201.594 179.965 197.44 185.955C191.45 190.095 185.546 194.363 179.557 198.503C172.401 199.811 165.202 200.978 158.046 202.273C150.876 200.978 143.691 199.811 136.535 198.503C130.546 194.363 124.642 190.109 118.652 185.955C114.527 179.965 110.259 174.061 106.119 168.072Z" fill="white" fill-opacity="0.05"/>
<path d="M151.132 146.561C151.26 147.457 151.388 148.368 151.53 149.264C152.071 149.989 152.611 150.729 153.166 151.455C153.892 151.995 154.617 152.55 155.357 153.091C156.254 153.219 157.164 153.361 158.06 153.489C158.957 153.361 159.867 153.233 160.763 153.091C161.489 152.55 162.229 152.01 162.954 151.455C163.495 150.729 164.05 150.004 164.59 149.264C164.718 148.368 164.861 147.457 164.989 146.561C164.861 145.665 164.733 144.754 164.59 143.858C164.05 143.132 163.509 142.392 162.954 141.667C162.229 141.126 161.503 140.571 160.763 140.031C159.867 139.903 158.957 139.76 158.06 139.632C157.164 139.76 156.254 139.888 155.357 140.031C154.632 140.571 153.892 141.112 153.166 141.667C152.626 142.392 152.071 143.118 151.53 143.858C151.402 144.754 151.26 145.65 151.132 146.561ZM156.894 147.045C156.865 146.888 156.851 146.717 156.823 146.561C156.851 146.404 156.865 146.234 156.894 146.077C156.993 145.949 157.093 145.821 157.192 145.679C157.321 145.579 157.449 145.48 157.591 145.394C157.747 145.366 157.918 145.352 158.075 145.323C158.231 145.352 158.402 145.366 158.558 145.394C158.686 145.494 158.814 145.593 158.957 145.679C159.056 145.807 159.156 145.935 159.241 146.077C159.27 146.234 159.284 146.404 159.312 146.561C159.284 146.717 159.27 146.888 159.241 147.045C159.142 147.173 159.042 147.301 158.957 147.443C158.829 147.542 158.701 147.642 158.558 147.742C158.402 147.77 158.231 147.784 158.075 147.813C157.918 147.784 157.747 147.77 157.591 147.742C157.463 147.642 157.335 147.542 157.192 147.443C157.079 147.301 156.993 147.173 156.894 147.045Z" fill="white" fill-opacity="0.05"/>
<path d="M111.283 146.561C112.364 152.579 113.36 158.611 114.441 164.629C117.941 169.651 121.498 174.616 124.983 179.638C130.005 183.123 134.97 186.694 139.992 190.18C146.01 191.261 152.042 192.243 158.06 193.338C164.078 192.257 170.11 191.261 176.128 190.18C181.15 186.68 186.115 183.123 191.137 179.638C194.623 174.616 198.194 169.651 201.679 164.629C202.761 158.611 203.742 152.579 204.838 146.561C203.757 140.543 202.761 134.511 201.679 128.493C198.18 123.471 194.623 118.506 191.137 113.484C186.115 109.998 181.15 106.427 176.128 102.942C170.11 101.861 164.078 100.879 158.06 99.7834C152.042 100.865 146.01 101.861 139.992 102.942C134.97 106.442 130.005 109.998 124.983 113.484C121.498 118.506 117.927 123.471 114.441 128.493C113.36 134.511 112.378 140.543 111.283 146.561ZM144.019 152.365C143.72 150.43 143.435 148.496 143.165 146.547C143.435 144.612 143.72 142.663 144.019 140.728C145.171 139.149 146.338 137.57 147.518 136.005C149.083 134.824 150.648 133.657 152.242 132.505C154.176 132.206 156.111 131.922 158.06 131.651C159.995 131.922 161.944 132.206 163.879 132.505C165.458 133.657 167.037 134.824 168.602 136.005C169.783 137.57 170.95 139.134 172.102 140.728C172.401 142.663 172.685 144.598 172.956 146.547C172.685 148.481 172.401 150.43 172.102 152.365C170.95 153.944 169.783 155.524 168.602 157.089C167.037 158.269 165.472 159.436 163.879 160.588C161.944 160.887 160.009 161.172 158.06 161.442C156.126 161.172 154.176 160.887 152.242 160.588C150.662 159.436 149.083 158.269 147.518 157.089C146.352 155.524 145.185 153.944 144.019 152.365ZM129.593 147.742C129.564 147.542 129.578 147.557 129.607 147.799C129.65 148.097 129.65 148.069 129.593 147.713C129.593 147.727 129.593 147.727 129.593 147.742ZM138.769 167.517C138.612 167.403 138.627 167.403 138.826 167.559C139.068 167.744 139.039 167.73 138.755 167.503L138.769 167.517ZM159.241 175.014C159.042 175.043 159.056 175.028 159.298 175C159.597 174.957 159.568 174.957 159.213 175.014C159.227 175.014 159.227 175.014 159.241 175.014ZM179.016 165.852C178.902 166.009 178.902 165.994 179.059 165.795C179.244 165.553 179.23 165.582 179.002 165.866L179.016 165.852ZM186.514 145.38C186.542 145.579 186.542 145.565 186.5 145.323C186.457 145.024 186.457 145.053 186.514 145.408C186.514 145.394 186.514 145.38 186.514 145.38ZM177.352 125.605C177.508 125.719 177.494 125.719 177.295 125.562C177.053 125.377 177.081 125.391 177.366 125.619C177.366 125.605 177.352 125.605 177.352 125.605ZM156.88 118.093C157.079 118.065 157.064 118.079 156.808 118.107C156.51 118.15 156.538 118.15 156.894 118.093H156.88ZM137.104 127.269C137.218 127.113 137.218 127.127 137.062 127.326C136.877 127.568 136.891 127.54 137.119 127.255C137.104 127.255 137.104 127.269 137.104 127.269ZM129.593 145.408C129.635 145.053 129.65 145.01 129.607 145.323C129.578 145.565 129.578 145.579 129.593 145.38C129.593 145.38 129.593 145.394 129.593 145.408ZM137.119 165.866C136.891 165.582 136.877 165.553 137.062 165.795C137.218 165.994 137.218 166.009 137.104 165.852C137.104 165.852 137.104 165.866 137.119 165.866ZM156.908 175.014C156.552 174.972 156.51 174.957 156.823 175C157.064 175.028 157.079 175.028 156.894 175.014C156.88 175.014 156.894 175.014 156.908 175.014ZM177.366 167.503C177.081 167.73 177.053 167.744 177.295 167.559C177.494 167.403 177.508 167.403 177.352 167.517L177.366 167.503ZM186.514 147.713C186.471 148.069 186.457 148.112 186.5 147.799C186.528 147.557 186.528 147.542 186.514 147.742C186.514 147.727 186.514 147.727 186.514 147.713ZM179.002 127.255C179.23 127.54 179.244 127.568 179.059 127.326C178.902 127.127 178.902 127.113 179.016 127.269L179.002 127.255ZM159.213 118.093C159.568 118.136 159.611 118.15 159.298 118.107C159.056 118.079 159.042 118.079 159.241 118.093C159.227 118.093 159.227 118.093 159.213 118.093ZM138.755 125.619C139.039 125.391 139.068 125.377 138.826 125.562C138.627 125.719 138.612 125.719 138.769 125.605C138.769 125.605 138.755 125.605 138.755 125.619ZM129.735 146.561C129.664 146.746 129.621 146.945 129.593 147.158C129.55 147.372 129.564 147.585 129.607 147.799C129.607 147.969 129.65 148.126 129.721 148.282C129.891 148.652 130.005 148.937 130.304 149.221C130.973 149.876 131.841 149.933 132.723 149.861C134.928 149.648 137.005 148.851 139.068 148.112C139.31 149.847 139.566 151.583 139.822 153.319C134.515 154.129 126.506 154.798 125.737 148.24C125.666 147.642 125.666 147.087 125.737 146.575C125.666 146.063 125.666 145.508 125.737 144.911C126.506 138.352 134.515 139.021 139.822 139.832C139.551 141.567 139.31 143.303 139.068 145.039C136.991 144.299 134.928 143.502 132.723 143.289C131.841 143.203 130.973 143.274 130.304 143.929C130.005 144.213 129.891 144.498 129.721 144.868C129.65 145.024 129.607 145.181 129.607 145.352C129.564 145.565 129.55 145.778 129.593 145.992C129.621 146.177 129.664 146.376 129.735 146.561ZM138.029 126.53C137.844 126.615 137.673 126.715 137.503 126.857C137.318 126.971 137.176 127.127 137.062 127.312C136.948 127.44 136.848 127.568 136.806 127.725C136.678 128.109 136.55 128.379 136.55 128.806C136.564 129.731 137.133 130.399 137.816 130.968C139.523 132.377 141.557 133.273 143.535 134.226C142.482 135.62 141.429 137.029 140.391 138.437C136.066 135.265 129.934 130.072 134.017 124.879C134.387 124.41 134.785 124.026 135.198 123.713C135.511 123.3 135.895 122.902 136.365 122.532C141.543 118.435 146.736 124.581 149.923 128.905C148.514 129.944 147.106 130.983 145.712 132.05C144.773 130.058 143.876 128.038 142.454 126.33C141.885 125.648 141.216 125.078 140.291 125.064C139.879 125.064 139.594 125.178 139.21 125.32C139.053 125.377 138.911 125.463 138.797 125.576C138.612 125.69 138.47 125.833 138.342 126.017C138.214 126.174 138.114 126.345 138.029 126.53ZM158.06 118.235C157.875 118.164 157.676 118.122 157.463 118.093C157.249 118.05 157.036 118.065 156.823 118.107C156.652 118.107 156.495 118.15 156.339 118.221C155.969 118.392 155.684 118.506 155.4 118.805C154.746 119.473 154.689 120.341 154.76 121.223C154.973 123.428 155.77 125.505 156.51 127.568C154.774 127.81 153.038 128.066 151.303 128.322C150.492 123.016 149.823 115.006 156.382 114.238C156.979 114.167 157.534 114.167 158.046 114.238C158.558 114.167 159.113 114.167 159.711 114.238C166.269 115.006 165.6 123.016 164.79 128.322C163.054 128.052 161.318 127.81 159.583 127.568C160.322 125.491 161.119 123.428 161.332 121.223C161.418 120.341 161.347 119.473 160.692 118.805C160.408 118.506 160.123 118.392 159.753 118.221C159.597 118.15 159.44 118.107 159.27 118.107C159.056 118.065 158.843 118.05 158.629 118.093C158.444 118.122 158.245 118.164 158.06 118.235ZM178.092 126.53C178.006 126.345 177.907 126.174 177.764 126.003C177.651 125.818 177.494 125.676 177.309 125.562C177.181 125.448 177.053 125.349 176.896 125.306C176.512 125.178 176.242 125.05 175.815 125.05C174.891 125.064 174.222 125.633 173.653 126.316C172.244 128.023 171.348 130.058 170.395 132.035C169.001 130.983 167.592 129.93 166.184 128.891C169.356 124.566 174.549 118.435 179.742 122.518C180.211 122.888 180.595 123.286 180.908 123.699C181.321 124.011 181.719 124.396 182.089 124.865C186.187 130.044 180.041 135.236 175.716 138.423C174.677 137.015 173.624 135.606 172.572 134.212C174.563 133.273 176.584 132.377 178.291 130.954C178.974 130.385 179.543 129.731 179.557 128.792C179.557 128.379 179.443 128.095 179.301 127.71C179.244 127.554 179.159 127.412 179.045 127.298C178.931 127.113 178.774 126.971 178.604 126.843C178.433 126.715 178.276 126.615 178.092 126.53ZM186.386 146.561C186.457 146.376 186.5 146.177 186.528 145.963C186.571 145.75 186.556 145.536 186.514 145.323C186.514 145.152 186.471 144.996 186.4 144.839C186.229 144.469 186.115 144.185 185.817 143.9C185.148 143.246 184.28 143.189 183.398 143.26C181.193 143.474 179.116 144.27 177.053 145.01C176.811 143.274 176.555 141.539 176.299 139.803C181.606 138.992 189.615 138.324 190.383 144.882C190.455 145.48 190.455 146.034 190.383 146.547C190.455 147.059 190.455 147.614 190.383 148.211C189.615 154.77 181.606 154.101 176.299 153.29C176.569 151.554 176.811 149.819 177.053 148.083C179.13 148.823 181.193 149.62 183.398 149.833C184.28 149.918 185.148 149.847 185.817 149.193C186.115 148.908 186.229 148.624 186.4 148.254C186.471 148.097 186.514 147.941 186.514 147.77C186.556 147.557 186.571 147.343 186.528 147.13C186.5 146.945 186.457 146.746 186.386 146.561ZM178.092 166.592C178.276 166.507 178.447 166.407 178.618 166.265C178.803 166.151 178.945 165.994 179.059 165.81C179.173 165.682 179.272 165.553 179.315 165.397C179.443 165.013 179.571 164.743 179.571 164.316C179.557 163.391 178.988 162.722 178.305 162.153C176.598 160.745 174.563 159.849 172.586 158.895C173.639 157.501 174.691 156.093 175.73 154.684C180.055 157.857 186.187 163.05 182.103 168.242C181.734 168.712 181.335 169.096 180.923 169.409C180.61 169.821 180.226 170.22 179.756 170.59C174.578 174.687 169.385 168.541 166.198 164.216C167.606 163.178 169.015 162.139 170.409 161.072C171.348 163.064 172.244 165.084 173.667 166.791C174.236 167.474 174.905 168.043 175.829 168.057C176.242 168.057 176.527 167.944 176.911 167.801C177.067 167.744 177.209 167.659 177.323 167.545C177.508 167.431 177.651 167.275 177.779 167.104C177.892 166.933 178.006 166.777 178.092 166.592ZM158.06 174.886C158.245 174.957 158.444 175 158.658 175.028C158.871 175.071 159.085 175.057 159.298 175.014C159.469 175.014 159.625 174.972 159.782 174.9C160.152 174.73 160.436 174.616 160.721 174.317C161.375 173.648 161.432 172.781 161.361 171.899C161.148 169.693 160.351 167.616 159.611 165.553C161.347 165.312 163.082 165.056 164.818 164.799C165.629 170.106 166.298 178.116 159.739 178.884C159.142 178.955 158.587 178.955 158.075 178.884C157.562 178.955 157.008 178.955 156.41 178.884C149.852 178.116 150.52 170.106 151.331 164.799C153.067 165.07 154.802 165.312 156.538 165.553C155.798 167.631 155.002 169.693 154.788 171.899C154.703 172.781 154.774 173.648 155.428 174.317C155.713 174.616 155.997 174.73 156.367 174.9C156.524 174.972 156.68 175.014 156.851 175.014C157.064 175.057 157.278 175.071 157.491 175.028C157.676 175 157.875 174.957 158.06 174.886ZM138.029 166.592C138.114 166.777 138.214 166.948 138.356 167.118C138.47 167.303 138.627 167.446 138.812 167.559C138.94 167.673 139.068 167.773 139.224 167.816C139.608 167.944 139.879 168.072 140.305 168.072C141.23 168.057 141.899 167.488 142.468 166.805C143.876 165.098 144.773 163.064 145.726 161.086C147.12 162.139 148.528 163.192 149.937 164.23C146.764 168.555 141.572 174.687 136.379 170.604C135.909 170.234 135.525 169.836 135.212 169.423C134.8 169.11 134.401 168.726 134.031 168.257C129.934 163.078 136.08 157.885 140.405 154.698C141.444 156.107 142.496 157.515 143.549 158.91C141.557 159.849 139.537 160.745 137.83 162.168C137.147 162.737 136.578 163.405 136.564 164.33C136.564 164.743 136.678 165.027 136.82 165.411C136.877 165.568 136.962 165.71 137.076 165.824C137.19 166.009 137.346 166.151 137.517 166.279C137.673 166.393 137.844 166.507 138.029 166.592ZM120.488 146.561C120.388 147.414 120.416 148.339 120.573 149.349C121.583 155.467 126.861 157.103 132.438 157.174C128.54 161.172 125.965 166.051 129.578 171.102C130.176 171.927 130.816 172.596 131.485 173.136C132.011 173.805 132.694 174.445 133.519 175.043C138.57 178.656 143.45 176.081 147.447 172.183C147.518 177.76 149.154 183.038 155.272 184.048C156.282 184.219 157.207 184.233 158.06 184.134C158.914 184.233 159.839 184.205 160.849 184.048C166.966 183.038 168.602 177.76 168.673 172.183C172.671 176.081 177.551 178.656 182.601 175.043C183.427 174.445 184.095 173.805 184.636 173.136C185.304 172.61 185.945 171.927 186.542 171.102C190.156 166.051 187.581 161.172 183.683 157.174C189.26 157.103 194.538 155.467 195.548 149.349C195.718 148.339 195.733 147.414 195.633 146.561C195.733 145.707 195.704 144.782 195.548 143.772C194.538 137.655 189.26 136.019 183.683 135.948C187.581 131.95 190.156 127.07 186.542 122.02C185.945 121.195 185.304 120.526 184.636 119.985C184.109 119.317 183.427 118.676 182.601 118.079C177.551 114.465 172.671 117.04 168.673 120.939C168.602 115.362 166.966 110.084 160.849 109.073C159.839 108.903 158.914 108.889 158.06 108.988C157.207 108.889 156.282 108.917 155.272 109.073C149.154 110.084 147.518 115.362 147.447 120.939C143.45 117.04 138.57 114.465 133.519 118.079C132.694 118.676 132.025 119.317 131.485 119.985C130.816 120.512 130.176 121.195 129.578 122.02C125.965 127.07 128.54 131.95 132.438 135.948C126.861 136.019 121.583 137.655 120.573 143.772C120.416 144.782 120.388 145.707 120.488 146.561ZM118.098 163.106C117.116 157.601 116.205 152.067 115.224 146.561C116.205 141.041 117.116 135.521 118.098 130.015C121.299 125.42 124.556 120.867 127.757 116.272C132.353 113.071 136.905 109.813 141.5 106.612C147.006 105.631 152.54 104.72 158.046 103.738C163.566 104.72 169.086 105.631 174.592 106.612C179.187 109.813 183.74 113.071 188.335 116.272C191.536 120.867 194.794 125.42 197.995 130.015C198.976 135.521 199.887 141.055 200.868 146.561C199.887 152.067 198.976 157.601 197.995 163.106C194.794 167.702 191.536 172.254 188.335 176.849C183.74 180.05 179.187 183.308 174.592 186.509C169.086 187.491 163.552 188.402 158.046 189.383C152.526 188.402 147.006 187.491 141.5 186.509C136.905 183.308 132.353 180.05 127.757 176.849C124.571 172.254 121.299 167.702 118.098 163.106Z" fill="white" fill-opacity="0.05"/>
</g>
<g clip-path="url(#clip2_1_256)">
<path d="M-40.3093 234.338C-39.3521 239.607 -38.5157 244.894 -37.5585 250.163C-34.5567 254.575 -31.4528 258.912 -28.4511 263.324C-24.0925 266.363 -19.8083 269.505 -15.4498 272.544C-10.2456 273.513 -5.02278 274.36 0.181438 275.329C5.38566 274.36 10.6085 273.513 15.8127 272.544C20.1712 269.505 24.4554 266.363 28.8139 263.324C31.8157 258.912 34.9196 254.575 37.9213 250.163C38.8785 244.894 39.7149 239.607 40.6721 234.338C39.7149 229.07 38.8785 223.783 37.9213 218.514C34.9196 214.102 31.8157 209.765 28.8139 205.352C24.4554 202.314 20.1712 199.171 15.8127 196.133C10.6178 195.154 5.39496 194.307 0.190735 193.338C-5.01348 194.307 -10.2363 195.154 -15.4405 196.123C-19.7991 199.162 -24.0832 202.304 -28.4418 205.343C-31.4435 209.755 -34.5474 214.092 -37.5492 218.505C-38.5157 223.773 -39.3521 229.07 -40.3093 234.338ZM-33.7389 248.563C-34.5939 243.831 -35.356 239.071 -36.2016 234.338C-35.356 229.597 -34.5939 224.846 -33.7389 220.113C-31.0346 216.153 -28.2559 212.248 -25.5423 208.288C-21.6298 205.55 -17.7731 202.728 -13.8607 199.99C-9.18616 199.124 -4.48377 198.353 0.190735 197.497C4.87453 198.353 9.56763 199.124 14.2421 199.99C18.1546 202.728 22.0113 205.54 25.9238 208.288C28.6281 212.248 31.4161 216.153 34.1204 220.113C34.9754 224.846 35.7374 229.606 36.5831 234.338C35.7281 239.071 34.9661 243.831 34.1111 248.563C31.4068 252.524 28.6281 256.428 25.9145 260.389C22.002 263.127 18.1453 265.949 14.2328 268.687C9.55833 269.552 4.85595 270.324 0.181438 271.18C-4.50236 270.324 -9.19545 269.552 -13.87 268.687C-17.7824 265.949 -21.6391 263.136 -25.5516 260.389C-28.2466 256.428 -31.0346 252.524 -33.7389 248.563Z" fill="white" fill-opacity="0.03"/>
<path d="M-4.33511 234.338C-4.25147 234.931 -4.16783 235.533 -4.0749 236.126C-3.72176 236.606 -3.36861 237.095 -3.00618 237.575C-2.53222 237.932 -2.05826 238.299 -1.57502 238.657C-0.989541 238.741 -0.394771 238.835 0.190704 238.92C0.776179 238.835 1.37095 238.751 1.95642 238.657C2.43038 238.299 2.91363 237.942 3.38758 237.575C3.74073 237.095 4.10316 236.615 4.45631 236.126C4.53994 235.533 4.63288 234.931 4.71652 234.338C4.63288 233.746 4.54924 233.143 4.45631 232.551C4.10316 232.071 3.75002 231.582 3.38758 231.102C2.91363 230.744 2.43967 230.378 1.95642 230.02C1.37095 229.935 0.776179 229.841 0.190704 229.757C-0.394771 229.841 -0.989541 229.926 -1.57502 230.02C-2.04897 230.378 -2.53222 230.735 -3.00618 231.102C-3.35932 231.582 -3.72176 232.062 -4.0749 232.551C-4.15854 233.143 -4.25147 233.736 -4.33511 234.338ZM-0.571346 234.658C-0.589932 234.555 -0.599225 234.442 -0.617811 234.338C-0.599225 234.235 -0.589932 234.122 -0.571346 234.018C-0.506293 233.934 -0.441238 233.849 -0.376185 233.755C-0.292545 233.689 -0.208907 233.623 -0.115975 233.567C-0.0137491 233.548 0.0977702 233.539 0.199996 233.52C0.302222 233.539 0.413741 233.548 0.515967 233.567C0.599606 233.633 0.683244 233.699 0.776177 233.755C0.841229 233.84 0.906283 233.924 0.962043 234.018C0.980629 234.122 0.989922 234.235 1.00851 234.338C0.989922 234.442 0.980629 234.555 0.962043 234.658C0.89699 234.743 0.831936 234.828 0.776177 234.922C0.692537 234.987 0.6089 235.053 0.515967 235.119C0.413741 235.138 0.302222 235.147 0.199996 235.166C0.0977702 235.147 -0.0137491 235.138 -0.115975 235.119C-0.199614 235.053 -0.283252 234.987 -0.376185 234.922C-0.450531 234.828 -0.506293 234.743 -0.571346 234.658Z" fill="white" fill-opacity="0.03"/>
<path d="M-30.3655 234.338C-29.6593 238.318 -29.0087 242.307 -28.3024 246.286C-26.0163 249.607 -23.693 252.891 -21.4161 256.212C-18.1356 258.517 -14.8923 260.878 -11.6118 263.183C-7.68071 263.898 -3.74037 264.547 0.190674 265.272C4.12172 264.557 8.06206 263.898 11.9931 263.183C15.2736 260.869 18.517 258.517 21.7975 256.212C24.0743 252.891 26.4069 249.607 28.6838 246.286C29.3901 242.307 30.0313 238.318 30.7469 234.338C30.0406 230.359 29.3901 226.37 28.6838 222.39C26.3976 219.069 24.0743 215.786 21.7975 212.465C18.517 210.16 15.2736 207.798 11.9931 205.493C8.06206 204.778 4.12172 204.129 0.190674 203.405C-3.74037 204.12 -7.68071 204.778 -11.6118 205.493C-14.8923 207.808 -18.1356 210.16 -21.4161 212.465C-23.693 215.786 -26.0256 219.069 -28.3024 222.39C-29.0087 226.37 -29.65 230.359 -30.3655 234.338ZM-8.98177 238.177C-9.17693 236.897 -9.36279 235.618 -9.53936 234.329C-9.36279 233.049 -9.17693 231.76 -8.98177 230.481C-8.22901 229.437 -7.46697 228.392 -6.69563 227.358C-5.67337 226.577 -4.65111 225.805 -3.61027 225.043C-2.34638 224.846 -1.0825 224.657 0.190674 224.479C1.45456 224.657 2.72773 224.846 3.99161 225.043C5.02316 225.805 6.05472 226.577 7.07697 227.358C7.84832 228.392 8.61036 229.427 9.36311 230.481C9.55827 231.76 9.74414 233.04 9.92071 234.329C9.74414 235.608 9.55827 236.897 9.36311 238.177C8.61036 239.221 7.84832 240.265 7.07697 241.3C6.05472 242.081 5.03246 242.853 3.99161 243.615C2.72773 243.812 1.46385 244 0.190674 244.179C-1.07321 244 -2.34638 243.812 -3.61027 243.615C-4.64182 242.853 -5.67337 242.081 -6.69563 241.3C-7.45768 240.265 -8.21972 239.221 -8.98177 238.177ZM-18.4051 235.119C-18.4237 234.987 -18.4144 234.997 -18.3958 235.157C-18.368 235.354 -18.368 235.336 -18.4051 235.1C-18.4051 235.11 -18.4051 235.11 -18.4051 235.119ZM-12.411 248.196C-12.5132 248.121 -12.5039 248.121 -12.3738 248.224C-12.2158 248.347 -12.2344 248.337 -12.4203 248.187L-12.411 248.196ZM0.962013 253.154C0.831907 253.173 0.841202 253.164 0.999187 253.145C1.19435 253.117 1.17576 253.117 0.943426 253.154C0.952719 253.154 0.952719 253.154 0.962013 253.154ZM13.8796 247.096C13.8053 247.199 13.8053 247.19 13.9075 247.058C14.0283 246.898 14.019 246.917 13.8703 247.105L13.8796 247.096ZM18.7772 233.557C18.7958 233.689 18.7958 233.68 18.7679 233.52C18.74 233.322 18.74 233.341 18.7772 233.576C18.7772 233.567 18.7772 233.557 18.7772 233.557ZM12.7923 220.48C12.8945 220.556 12.8853 220.556 12.7551 220.452C12.5972 220.33 12.6158 220.339 12.8016 220.49C12.8016 220.48 12.7923 220.48 12.7923 220.48ZM-0.580667 215.513C-0.450562 215.494 -0.459854 215.503 -0.627132 215.522C-0.82229 215.551 -0.803707 215.551 -0.571375 215.513H-0.580667ZM-13.4983 221.581C-13.4239 221.478 -13.4239 221.487 -13.5262 221.619C-13.647 221.779 -13.6377 221.76 -13.489 221.572C-13.4983 221.572 -13.4983 221.581 -13.4983 221.581ZM-18.4051 233.576C-18.3772 233.341 -18.368 233.313 -18.3958 233.52C-18.4144 233.68 -18.4144 233.689 -18.4051 233.557C-18.4051 233.557 -18.4051 233.567 -18.4051 233.576ZM-13.489 247.105C-13.6377 246.917 -13.647 246.898 -13.5262 247.058C-13.4239 247.19 -13.4239 247.199 -13.4983 247.096C-13.4983 247.096 -13.4983 247.105 -13.489 247.105ZM-0.56208 253.154C-0.794411 253.126 -0.822292 253.117 -0.61784 253.145C-0.459856 253.164 -0.450563 253.164 -0.571375 253.154C-0.580667 253.154 -0.571373 253.154 -0.56208 253.154ZM12.8016 248.187C12.6158 248.337 12.5972 248.347 12.7551 248.224C12.8853 248.121 12.8945 248.121 12.7923 248.196L12.8016 248.187ZM18.7772 235.1C18.7493 235.336 18.74 235.364 18.7679 235.157C18.7865 234.997 18.7865 234.987 18.7772 235.119C18.7772 235.11 18.7772 235.11 18.7772 235.1ZM13.8703 221.572C14.019 221.76 14.0283 221.779 13.9075 221.619C13.8053 221.487 13.8053 221.478 13.8796 221.581L13.8703 221.572ZM0.943426 215.513C1.17576 215.541 1.20364 215.551 0.999187 215.522C0.841202 215.503 0.831907 215.503 0.962013 215.513C0.952719 215.513 0.952719 215.513 0.943426 215.513ZM-12.4203 220.49C-12.2344 220.339 -12.2158 220.33 -12.3738 220.452C-12.5039 220.556 -12.5132 220.556 -12.411 220.48C-12.411 220.48 -12.4203 220.48 -12.4203 220.49ZM-18.3122 234.338C-18.3587 234.461 -18.3865 234.592 -18.4051 234.733C-18.433 234.875 -18.4237 235.016 -18.3958 235.157C-18.3958 235.27 -18.368 235.373 -18.3215 235.477C-18.21 235.721 -18.1356 235.909 -17.9405 236.098C-17.5037 236.53 -16.9368 236.568 -16.3606 236.521C-14.9202 236.38 -13.5633 235.853 -12.2158 235.364C-12.0578 236.512 -11.8906 237.659 -11.7233 238.807C-15.1897 239.343 -20.4218 239.785 -20.9236 235.448C-20.9701 235.053 -20.9701 234.686 -20.9236 234.348C-20.9701 234.009 -20.9701 233.642 -20.9236 233.247C-20.4218 228.91 -15.1897 229.352 -11.7233 229.888C-11.8998 231.036 -12.0578 232.184 -12.2158 233.332C-13.5726 232.842 -14.9202 232.316 -16.3606 232.174C-16.9368 232.118 -17.5037 232.165 -17.9405 232.598C-18.1356 232.786 -18.21 232.974 -18.3215 233.219C-18.368 233.322 -18.3958 233.426 -18.3958 233.539C-18.4237 233.68 -18.433 233.821 -18.4051 233.962C-18.3865 234.084 -18.3587 234.216 -18.3122 234.338ZM-12.8942 221.092C-13.015 221.148 -13.1266 221.214 -13.2381 221.308C-13.3589 221.383 -13.4518 221.487 -13.5262 221.609C-13.6005 221.694 -13.6656 221.779 -13.6934 221.882C-13.7771 222.136 -13.8607 222.315 -13.8607 222.597C-13.8514 223.209 -13.4797 223.651 -13.0336 224.027C-11.9184 224.959 -10.5895 225.551 -9.29774 226.182C-9.98544 227.104 -10.6731 228.035 -11.3515 228.966C-14.1767 226.868 -18.1821 223.434 -15.5149 220.001C-15.2733 219.69 -15.0131 219.436 -14.7436 219.229C-14.5391 218.956 -14.2882 218.693 -13.9815 218.448C-10.5988 215.739 -7.20675 219.803 -5.12507 222.663C-6.0451 223.35 -6.96513 224.037 -7.87587 224.742C-8.48922 223.425 -9.0747 222.089 -10.004 220.96C-10.3758 220.509 -10.8125 220.132 -11.4166 220.123C-11.6861 220.123 -11.872 220.198 -12.1229 220.292C-12.2251 220.33 -12.318 220.386 -12.3924 220.462C-12.5132 220.537 -12.6061 220.631 -12.6898 220.753C-12.7734 220.857 -12.8385 220.97 -12.8942 221.092ZM0.190674 215.607C0.0698624 215.56 -0.0602455 215.532 -0.199644 215.513C-0.339043 215.485 -0.478441 215.494 -0.61784 215.522C-0.729361 215.522 -0.831585 215.551 -0.933811 215.598C-1.17544 215.71 -1.3613 215.786 -1.54717 215.983C-1.97466 216.425 -2.01183 216.999 -1.96536 217.583C-1.82596 219.041 -1.30554 220.414 -0.82229 221.779C-1.95607 221.939 -3.08984 222.108 -4.22362 222.277C-4.75334 218.768 -5.19012 213.471 -0.90593 212.963C-0.515614 212.916 -0.153177 212.916 0.181379 212.963C0.515936 212.916 0.878376 212.916 1.26869 212.963C5.55288 213.471 5.1161 218.768 4.58638 222.277C3.45261 222.098 2.31883 221.939 1.18505 221.779C1.6683 220.405 2.18872 219.041 2.32812 217.583C2.38388 216.999 2.33741 216.425 1.90992 215.983C1.72406 215.786 1.53819 215.71 1.29657 215.598C1.19435 215.551 1.09212 215.522 0.9806 215.522C0.841202 215.494 0.701801 215.485 0.562403 215.513C0.441591 215.532 0.311487 215.56 0.190674 215.607ZM13.2756 221.092C13.2198 220.97 13.1548 220.857 13.0618 220.744C12.9875 220.621 12.8853 220.527 12.7644 220.452C12.6808 220.377 12.5972 220.311 12.4949 220.283C12.244 220.198 12.0675 220.113 11.7887 220.113C11.1846 220.123 10.7478 220.499 10.3761 220.951C9.45605 222.08 8.87057 223.425 8.24792 224.733C7.33718 224.037 6.41715 223.34 5.49712 222.654C7.56952 219.794 10.9616 215.739 14.3536 218.439C14.6603 218.683 14.9112 218.947 15.1156 219.22C15.3851 219.427 15.6454 219.681 15.887 219.991C18.5634 223.416 14.5487 226.85 11.7236 228.957C11.0452 228.026 10.3575 227.094 9.66979 226.172C10.9708 225.551 12.2905 224.959 13.4057 224.018C13.8518 223.641 14.2235 223.209 14.2328 222.588C14.2328 222.315 14.1584 222.127 14.0655 221.873C14.0283 221.769 13.9726 221.675 13.8982 221.6C13.8239 221.478 13.7216 221.383 13.6101 221.299C13.4986 221.214 13.3964 221.148 13.2756 221.092ZM18.6935 234.338C18.74 234.216 18.7679 234.084 18.7865 233.943C18.8144 233.802 18.8051 233.661 18.7772 233.52C18.7772 233.407 18.7493 233.303 18.7028 233.2C18.5913 232.955 18.517 232.767 18.3218 232.579C17.885 232.146 17.3181 232.109 16.742 232.156C15.3015 232.297 13.9447 232.824 12.5972 233.313C12.4392 232.165 12.2719 231.017 12.1046 229.869C15.571 229.333 20.8031 228.891 21.3049 233.228C21.3514 233.623 21.3514 233.99 21.3049 234.329C21.3514 234.668 21.3514 235.034 21.3049 235.43C20.8031 239.767 15.571 239.325 12.1046 238.788C12.2812 237.64 12.4392 236.493 12.5972 235.345C13.954 235.834 15.3015 236.361 16.742 236.502C17.3181 236.559 17.885 236.512 18.3218 236.079C18.517 235.891 18.5913 235.702 18.7028 235.458C18.7493 235.354 18.7772 235.251 18.7772 235.138C18.8051 234.997 18.8144 234.856 18.7865 234.715C18.7679 234.592 18.74 234.461 18.6935 234.338ZM13.2756 247.585C13.3964 247.528 13.5079 247.462 13.6194 247.368C13.7402 247.293 13.8332 247.19 13.9075 247.067C13.9819 246.983 14.0469 246.898 14.0748 246.794C14.1584 246.54 14.2421 246.362 14.2421 246.079C14.2328 245.468 13.861 245.026 13.415 244.649C12.2998 243.718 10.9708 243.125 9.67908 242.495C10.3668 241.573 11.0545 240.642 11.7329 239.71C14.558 241.808 18.5634 245.242 15.8963 248.676C15.6546 248.987 15.3944 249.241 15.1249 249.448C14.9205 249.72 14.6696 249.984 14.3629 250.228C10.9801 252.938 7.5881 248.874 5.50641 246.014C6.42645 245.327 7.34648 244.64 8.25721 243.934C8.87057 245.252 9.45604 246.587 10.3854 247.716C10.7571 248.168 11.1939 248.544 11.7979 248.554C12.0674 248.554 12.2533 248.478 12.5042 248.384C12.6065 248.347 12.6994 248.29 12.7737 248.215C12.8945 248.14 12.9875 248.036 13.0711 247.923C13.1455 247.811 13.2198 247.707 13.2756 247.585ZM0.190674 253.07C0.311487 253.117 0.441591 253.145 0.58099 253.164C0.720388 253.192 0.859787 253.182 0.999187 253.154C1.11071 253.154 1.21293 253.126 1.31516 253.079C1.55678 252.966 1.74265 252.891 1.92851 252.693C2.356 252.251 2.39318 251.677 2.34671 251.094C2.20731 249.636 1.68689 248.262 1.20364 246.898C2.33741 246.738 3.47119 246.569 4.60497 246.399C5.13469 249.908 5.57146 255.205 1.28728 255.713C0.896959 255.76 0.534523 255.76 0.199966 255.713C-0.13459 255.76 -0.49703 255.76 -0.887346 255.713C-5.17154 255.205 -4.73475 249.908 -4.20504 246.399C-3.07126 246.578 -1.93748 246.738 -0.803707 246.898C-1.28695 248.272 -1.80738 249.636 -1.94678 251.094C-2.00253 251.677 -1.95607 252.251 -1.52858 252.693C-1.34271 252.891 -1.15685 252.966 -0.915224 253.079C-0.812998 253.126 -0.710773 253.154 -0.599255 253.154C-0.459854 253.182 -0.320456 253.192 -0.181057 253.164C-0.0602436 253.145 0.0698624 253.117 0.190674 253.07ZM-12.8942 247.585C-12.8385 247.707 -12.7734 247.82 -12.6805 247.933C-12.6061 248.055 -12.5039 248.149 -12.3831 248.224C-12.2995 248.3 -12.2158 248.366 -12.1136 248.394C-11.8627 248.478 -11.6861 248.563 -11.4073 248.563C-10.8032 248.554 -10.3665 248.177 -9.99473 247.726C-9.0747 246.597 -8.48923 245.252 -7.86658 243.944C-6.95584 244.64 -6.03581 245.336 -5.11577 246.023C-7.18817 248.883 -10.5802 252.938 -13.9722 250.238C-14.2789 249.993 -14.5298 249.73 -14.7343 249.457C-15.0038 249.25 -15.264 248.996 -15.5056 248.685C-18.1821 245.261 -14.1674 241.827 -11.3423 239.72C-10.6638 240.651 -9.97614 241.582 -9.28844 242.504C-10.5895 243.125 -11.9091 243.718 -13.0243 244.659C-13.4704 245.035 -13.8421 245.477 -13.8514 246.089C-13.8514 246.362 -13.7771 246.55 -13.6842 246.804C-13.647 246.907 -13.5912 247.001 -13.5169 247.077C-13.4425 247.199 -13.3403 247.293 -13.2288 247.378C-13.1266 247.453 -13.015 247.528 -12.8942 247.585ZM-24.3528 234.338C-24.4179 234.903 -24.3993 235.514 -24.297 236.182C-23.6372 240.228 -20.1894 241.31 -16.5465 241.357C-19.0928 244 -20.7749 247.227 -18.4144 250.567C-18.0241 251.113 -17.6059 251.555 -17.1691 251.912C-16.8253 252.355 -16.3792 252.778 -15.8402 253.173C-12.5411 255.563 -9.3535 253.86 -6.74209 251.282C-6.69563 254.97 -5.6269 258.46 -1.63081 259.128C-0.970985 259.241 -0.36692 259.251 0.190674 259.185C0.74827 259.251 1.35233 259.232 2.01215 259.128C6.00825 258.46 7.07697 254.97 7.12344 251.282C9.73484 253.86 12.9224 255.563 16.2215 253.173C16.7605 252.778 17.1973 252.355 17.5505 251.912C17.9873 251.564 18.4054 251.113 18.7958 250.567C21.1562 247.227 19.4742 244 16.9278 241.357C20.5708 241.31 24.0186 240.228 24.6784 236.182C24.7899 235.514 24.7992 234.903 24.7341 234.338C24.7992 233.774 24.7806 233.162 24.6784 232.494C24.0186 228.449 20.5708 227.367 16.9278 227.32C19.4742 224.676 21.1562 221.449 18.7958 218.11C18.4054 217.564 17.9873 217.122 17.5505 216.764C17.2066 216.322 16.7605 215.899 16.2215 215.503C12.9224 213.114 9.73484 214.817 7.12344 217.395C7.07697 213.707 6.00825 210.216 2.01215 209.548C1.35233 209.435 0.74827 209.426 0.190674 209.492C-0.36692 209.426 -0.970985 209.445 -1.63081 209.548C-5.6269 210.216 -6.69563 213.707 -6.74209 217.395C-9.3535 214.817 -12.5411 213.114 -15.8402 215.503C-16.3792 215.899 -16.816 216.322 -17.1691 216.764C-17.6059 217.112 -18.0241 217.564 -18.4144 218.11C-20.7749 221.449 -19.0928 224.676 -16.5465 227.32C-20.1894 227.367 -23.6372 228.449 -24.297 232.494C-24.3993 233.162 -24.4179 233.774 -24.3528 234.338ZM-25.9141 245.28C-26.5553 241.639 -27.1501 237.979 -27.7913 234.338C-27.1501 230.688 -26.5553 227.038 -25.9141 223.397C-23.8231 220.358 -21.6949 217.347 -19.604 214.309C-16.6022 212.192 -13.6284 210.037 -10.6267 207.921C-7.03018 207.272 -3.41511 206.669 0.181379 206.02C3.78716 206.669 7.39294 207.272 10.9894 207.921C13.9912 210.037 16.965 212.192 19.9667 214.309C22.0577 217.347 24.1859 220.358 26.2768 223.397C26.9181 227.038 27.5128 230.697 28.1541 234.338C27.5128 237.979 26.9181 241.639 26.2768 245.28C24.1859 248.319 22.0577 251.329 19.9667 254.368C16.965 256.485 13.9912 258.639 10.9894 260.756C7.39294 261.405 3.77787 262.007 0.181379 262.656C-3.4244 262.007 -7.03018 261.405 -10.6267 260.756C-13.6284 258.639 -16.6022 256.485 -19.604 254.368C-21.6856 251.329 -23.8231 248.319 -25.9141 245.28Z" fill="white" fill-opacity="0.03"/>
</g>
</g>
<defs>
<filter id="filter0_dddddd_1_256" x="-79.6149" y="0.666321" width="333.33" height="416.743" filterUnits="userSpaceOnUse" color-interpolation-filters="sRGB">
<feFlood flood-opacity="0" result="BackgroundImageFix"/>
<feColorMatrix in="SourceAlpha" type="matrix" values="0 0 0 0 0 0 0 0 0 0 0 0 0 0 0 0 0 0 127 0" result="hardAlpha"/>
<feOffset dy="2.76726"/>
<feGaussianBlur stdDeviation="1.1069"/>
<feColorMatrix type="matrix" values="0 0 0 0 0 0 0 0 0 0 0 0 0 0 0 0 0 0 0.0196802 0"/>
<feBlend mode="normal" in2="BackgroundImageFix" result="effect1_dropShadow_1_256"/>
<feColorMatrix in="SourceAlpha" type="matrix" values="0 0 0 0 0 0 0 0 0 0 0 0 0 0 0 0 0 0 127 0" result="hardAlpha"/>
<feOffset dy="6.6501"/>
<feGaussianBlur stdDeviation="2.66004"/>
<feColorMatrix type="matrix" values="0 0 0 0 0 0 0 0 0 0 0 0 0 0 0 0 0 0 0.0282725 0"/>
<feBlend mode="normal" in2="effect1_dropShadow_1_256" result="effect2_dropShadow_1_256"/>
<feColorMatrix in="SourceAlpha" type="matrix" values="0 0 0 0 0 0 0 0 0 0 0 0 0 0 0 0 0 0 127 0" result="hardAlpha"/>
<feOffset dy="12.5216"/>
<feGaussianBlur stdDeviation="5.00862"/>
<feColorMatrix type="matrix" values="0 0 0 0 0 0 0 0 0 0 0 0 0 0 0 0 0 0 0.035 0"/>
<feBlend mode="normal" in2="effect2_dropShadow_1_256" result="effect3_dropShadow_1_256"/>
<feColorMatrix in="SourceAlpha" type="matrix" values="0 0 0 0 0 0 0 0 0 0 0 0 0 0 0 0 0 0 127 0" result="hardAlpha"/>
<feOffset dy="22.3363"/>
<feGaussianBlur stdDeviation="8.93452"/>
<feColorMatrix type="matrix" values="0 0 0 0 0 0 0 0 0 0 0 0 0 0 0 0 0 0 0.0417275 0"/>
<feBlend mode="normal" in2="effect3_dropShadow_1_256" result="effect4_dropShadow_1_256"/>
<feColorMatrix in="SourceAlpha" type="matrix" values="0 0 0 0 0 0 0 0 0 0 0 0 0 0 0 0 0 0 127 0" result="hardAlpha"/>
<feOffset dy="41.7776"/>
<feGaussianBlur stdDeviation="16.711"/>
<feColorMatrix type="matrix" values="0 0 0 0 0 0 0 0 0 0 0 0 0 0 0 0 0 0 0.0503198 0"/>
<feBlend mode="normal" in2="effect4_dropShadow_1_256" result="effect5_dropShadow_1_256"/>
<feColorMatrix in="SourceAlpha" type="matrix" values="0 0 0 0 0 0 0 0 0 0 0 0 0 0 0 0 0 0 127 0" result="hardAlpha"/>
<feOffset dy="100"/>
<feGaussianBlur stdDeviation="40"/>
<feColorMatrix type="matrix" values="0 0 0 0 0 0 0 0 0 0 0 0 0 0 0 0 0 0 0.07 0"/>
<feBlend mode="normal" in2="effect5_dropShadow_1_256" result="effect6_dropShadow_1_256"/>
<feBlend mode="normal" in="SourceGraphic" in2="effect6_dropShadow_1_256" result="shape"/>
</filter>
<linearGradient id="paint0_linear_1_256" x1="170.575" y1="-7.90304" x2="-72.6836" y2="312.175" gradientUnits="userSpaceOnUse">
<stop stop-color="#191919"/>
<stop offset="1" stop-color="#212121"/>
</linearGradient>
<clipPath id="clip0_1_256">
<rect x="0.385071" y="0.666321" width="173.33" height="236.743" rx="15" fill="white"/>
</clipPath>
<clipPath id="clip1_1_256">
<rect width="124" height="124" fill="white" transform="translate(96.0604 84.5609)"/>
</clipPath>
<clipPath id="clip2_1_256">
<rect width="81" height="82" fill="white" transform="translate(-40.3093 193.338)"/>
</clipPath>
</defs>
</svg>
